<svg id="Layer_1" data-name="Layer 1" xmlns="http://www.w3.org/2000/svg" viewBox="0 0 48 48"><defs><style>.cls-1{fill:#8fa5a5;}.cls-2{fill:#7b8c8c;}.cls-3{fill:#2d4a60;}.cls-4{fill:#263f52;}</style></defs><title>Public</title><path class="cls-1" d="M11.5,21A9.511,9.511,0,0,0,2,30.5V35a5.006,5.006,0,0,0,5,5h9a5.006,5.006,0,0,0,5-5V30.5A9.511,9.511,0,0,0,11.5,21Z" id="id_101" style="fill: rgb(255, 255, 255);"></path><path class="cls-2" d="M6,35V30.5a9.514,9.514,0,0,1,7.5-9.284A9.487,9.487,0,0,0,2,30.5V35a5.006,5.006,0,0,0,5,5h4A5.006,5.006,0,0,1,6,35Z" id="id_102" style="fill: rgb(255, 255, 255);"></path><circle class="cls-1" cx="11.5" cy="16.5" r="6.5" id="id_103" style="fill: rgb(255, 255, 255);"></circle><path class="cls-2" d="M13.25,21A6.247,6.247,0,0,1,8.434,10.771a6.5,6.5,0,1,0,8.8,8.795A6.224,6.224,0,0,1,13.25,21Z" id="id_104" style="fill: rgb(255, 255, 255);"></path><circle class="cls-1" cx="36.5" cy="16.5" r="6.5" id="id_105" style="fill: rgb(255, 255, 255);"></circle><path class="cls-1" d="M36.5,21A9.511,9.511,0,0,0,27,30.5V35a5.006,5.006,0,0,0,5,5h9a5.006,5.006,0,0,0,5-5V30.5A9.511,9.511,0,0,0,36.5,21Z" id="id_106" style="fill: rgb(255, 255, 255);"></path><path class="cls-2" d="M31,35V30.5a9.514,9.514,0,0,1,7.5-9.284A9.487,9.487,0,0,0,27,30.5V35a5.006,5.006,0,0,0,5,5h4A5.006,5.006,0,0,1,31,35Z" id="id_107" style="fill: rgb(255, 255, 255);"></path><circle class="cls-1" cx="36.5" cy="16.5" r="6.5" id="id_108" style="fill: rgb(255, 255, 255);"></circle><path class="cls-2" d="M38.25,21a6.247,6.247,0,0,1-4.816-10.229,6.5,6.5,0,1,0,8.8,8.795A6.224,6.224,0,0,1,38.25,21Z" id="id_109" style="fill: rgb(255, 255, 255);"></path><path class="cls-3" d="M24,20A11.013,11.013,0,0,0,13,31v6a5.006,5.006,0,0,0,5,5H30a5.006,5.006,0,0,0,5-5V31A11.013,11.013,0,0,0,24,20Z" id="id_110" style="fill: rgb(255, 255, 255);"></path><path class="cls-4" d="M16,37V31a11.007,11.007,0,0,1,9.5-10.885A10.918,10.918,0,0,0,13,31v6a5.006,5.006,0,0,0,5,5h3A5.006,5.006,0,0,1,16,37Z" id="id_111" style="fill: rgb(255, 255, 255);"></path><circle class="cls-3" cx="24" cy="14" r="8" id="id_112" style="fill: rgb(255, 255, 255);"></circle><path class="cls-4" d="M26.25,19A7.24,7.24,0,0,1,21.279,6.487,7.994,7.994,0,1,0,31.513,16.721,7.221,7.221,0,0,1,26.25,19Z" id="id_113" style="fill: rgb(255, 255, 255);"></path></svg>